Coordinates
version=1
nRows=60
nColumns=12
inDegrees=yes

Units are S.I. units (second, meters, Newtons, ...)
Angles are in degrees

endheader
time	SC_y	SC_z	SC_x	AC_y	AC_z	AC_x	GH_y	GH_z	GH_yy	EL_x	PS_y
       0.0               -49.5          33.15          72.16          56.24         -17.52           8.85         -85.62          8.987          165.3           25.7          93.67
    0.0117               -49.5          33.15          72.15          56.24         -17.52          8.849         -85.58          8.991          165.2          25.72          93.67
   0.02341               -49.5          33.15          72.15          56.24         -17.52          8.848         -85.54          8.996          165.2          25.73          93.67
   0.03511               -49.5          33.15          72.14          56.24         -17.52          8.846         -85.51          9.001          165.1          25.75          93.67
   0.04682               -49.5          33.15          72.13          56.24         -17.52          8.845         -85.46          9.006          165.1          25.76          93.67
   0.05852               -49.5          33.15          72.12          56.24         -17.52          8.843         -85.42          9.011          165.0          25.78          93.67
   0.07023               -49.5          33.15          72.11          56.24         -17.52          8.841         -85.37          9.017          164.9           25.8          93.67
   0.08193               -49.5          33.15           72.1          56.24         -17.52          8.839         -85.32          9.024          164.9          25.82          93.67
   0.09364              -49.51          33.15          72.09          56.24         -17.52          8.837         -85.26          9.031          164.8          25.85          93.67
    0.1053              -49.51          33.16          72.08          56.24         -17.51          8.835          -85.2          9.038          164.7          25.87          93.67
     0.117              -49.51          33.16          72.07          56.24         -17.51          8.833         -85.14          9.046          164.6           25.9          93.68
    0.1288              -49.51          33.16          72.05          56.24         -17.51           8.83         -85.07          9.054          164.5          25.92          93.68
    0.1405              -49.51          33.16          72.04          56.24         -17.51          8.828          -85.0          9.063          164.4          25.95          93.68
    0.1522              -49.51          33.16          72.02          56.24         -17.51          8.825         -84.92          9.073          164.3          25.99          93.68
    0.1639              -49.51          33.16          72.01          56.24         -17.51          8.821         -84.83          9.084          164.2          26.02          93.68
    0.1756              -49.52          33.16          71.99          56.24         -17.51          8.818         -84.74          9.095          164.1          26.06          93.68
    0.1873              -49.52          33.17          71.97          56.24         -17.51          8.814         -84.64          9.108          163.9           26.1          93.68
     0.199              -49.52          33.17          71.95          56.24         -17.51           8.81         -84.53          9.122          163.8          26.15          93.68
    0.2107              -49.52          33.17          71.92          56.24          -17.5          8.806         -84.41          9.137          163.6           26.2          93.68
    0.2224              -49.53          33.17           71.9          56.24          -17.5          8.801         -84.27          9.153          163.4          26.25          93.69
    0.2341              -49.53          33.18          71.87          56.23          -17.5          8.796         -84.13          9.171          163.2          26.31          93.69
    0.2458              -49.53          33.18          71.84          56.23          -17.5           8.79         -83.97          9.191          163.0          26.38          93.69
    0.2575              -49.54          33.18           71.8          56.23          -17.5          8.783         -83.79          9.212          162.8          26.45          93.69
    0.2692              -49.54          33.18          71.77          56.23         -17.49          8.776         -83.59          9.237          162.5          26.53          93.69
    0.2809              -49.55          33.19          71.72          56.23         -17.49          8.768         -83.38          9.264          162.2          26.62           93.7
    0.2926              -49.55          33.19          71.68          56.23         -17.49          8.759         -83.13          9.294          161.8          26.72           93.7
    0.3043              -49.56           33.2          71.62          56.23         -17.49          8.749         -82.86          9.327          161.5          26.83           93.7
     0.316              -49.56           33.2          71.56          56.22         -17.48          8.738         -82.56          9.365          161.0          26.96          93.71
    0.3277              -49.57          33.21           71.5          56.22         -17.48          8.725         -82.21          9.408          160.6           27.1          93.71
    0.3394              -49.58          33.22          71.42          56.22         -17.47          8.711         -81.82          9.456          160.0          27.26          93.72
    0.3511              -49.59          33.22          71.33          56.22         -17.47          8.695         -81.37          9.512          159.4          27.44          93.72
    0.3628               -49.6          33.23          71.23          56.21         -17.46          8.676         -80.86          9.575          158.7          27.65          93.73
    0.3746              -49.61          33.24          71.12          56.21         -17.45          8.654         -80.26          9.649          157.9           27.9          93.73
    0.3863              -49.63          33.26          70.98           56.2         -17.44          8.629         -79.57          9.734          156.9          28.18          93.74
     0.398              -49.64          33.27          70.82           56.2         -17.43          8.599         -78.76          9.834          155.8          28.51          93.75
    0.4097              -49.66          33.29          70.64          56.19         -17.42          8.564         -77.81          9.951          154.5           28.9          93.76
    0.4214              -49.69          33.31          70.42          56.18         -17.41          8.523         -76.68          10.09          152.9          29.36          93.78
    0.4331              -49.72          33.33          70.15          56.17         -17.39          8.473         -75.33          10.26          151.1          29.92          93.79
    0.4448              -49.75          33.36          69.83          56.16         -17.37          8.413         -73.69          10.46          148.8          30.59          93.81
    0.4565              -49.79           33.4          69.44          56.15         -17.35           8.34         -71.68          10.71          146.1          31.41          93.84
    0.4682              -49.84          33.44          68.96          56.13         -17.32          8.249         -69.21          11.01          142.6          32.43          93.87
    0.4799              -49.91           33.5          68.36          56.11         -17.28          8.136         -66.13           11.4          138.4          33.69           93.9
    0.4916              -49.99          33.57           67.6          56.09         -17.23          7.994         -62.24          11.88          133.0          35.28          93.95
    0.5033              -50.09          33.66          66.64          56.05         -17.17          7.813         -57.31          12.49          126.2          37.31          94.01
     0.515              -50.23          33.77           65.4          56.01         -17.09          7.581         -50.99          13.27          117.5           39.9          94.09
    0.5267               -50.4          33.92          63.82          55.95         -16.99          7.284         -42.87          14.27          106.3          43.22          94.19
    0.5384              -50.62          34.11           61.8          55.88         -16.86          6.904         -32.52          15.55          92.03          47.47          94.31
    0.5501              -50.89          34.34          59.26          55.79          -16.7          6.427         -19.49          17.16          74.07          52.81          94.47
    0.5618              -51.23          34.63          56.16          55.69          -16.5          5.845         -3.615          19.12          52.18          59.31          94.66
    0.5735              -51.61          34.96          52.57          55.56         -16.27          5.171          14.79           21.4           26.8          66.86          94.88
    0.5852              -52.03          35.32          48.68          55.42         -16.03           4.44          34.71          23.86        -0.6752          75.02          95.12
    0.5969              -52.45          35.68          44.79          55.29         -15.78           3.71          54.63          26.32         -28.15          83.19          95.36
    0.6086              -52.84          36.01           41.2          55.16         -15.55          3.036          73.03          28.59         -53.53          90.73          95.58
    0.6204              -53.18          36.29           38.1          55.05         -15.35          2.454          88.91          30.56         -75.42          97.24          95.77
    0.6321              -53.45          36.53          35.56          54.97         -15.19          1.977          101.9          32.17         -93.39          102.6          95.93
    0.6438              -53.67          36.71          33.54          54.89         -15.06          1.597          112.3          33.45         -107.7          106.8          96.06
    0.6555              -53.84          36.86          31.96          54.84         -14.96            1.3          120.4          34.45         -118.9          110.1          96.15
    0.6672              -53.97          36.97          30.72           54.8         -14.89          1.068          126.7          35.23         -127.6          112.7          96.23
    0.6789              -54.08          37.06          29.76          54.76         -14.82         0.8871          131.7          35.84         -134.4          114.8          96.29
    0.6906              -54.16          37.13           29.0          54.74         -14.78         0.7448          135.5          36.32         -139.7          116.4          96.34
